PathFileType	4	(X/Y/Z)	Kaydara	
DataRate	CameraRate	NumFrames	NumMarkers	Units	OrigDataRate	OrigDataStartFrame	OrigNumFrames	
120.00	120.00	4	72	mm	120.00	98	261	
Frame#	Time	Hips			RightUpLeg			RightLeg			RightFoot			RightFoot_End			LeftUpLeg			LeftLeg			LeftFoot			LeftFoot_End			Spine			Spine1			Spine2			Spine3			Neck			Head			Head_End			RightShoulder			RightArm			RightForeArm			RightHand			RightHandThumb1			RightHandThumb2			RightHandThumb3			RightHandThumb3_End			RightInHandIndex			RightHandIndex1			RightHandIndex2			RightHandIndex3			RightHandIndex3_End			RightInHandMiddle			RightHandMiddle1			RightHandMiddle2			RightHandMiddle3			RightHandMiddle3_End			RightInHandRing			RightHandRing1			RightHandRing2			RightHandRing3			RightHandRing3_End			RightInHandPinky			RightHandPinky1			RightHandPinky2			RightHandPinky3			RightHandPinky3_End			LeftShoulder			LeftArm			LeftForeArm			LeftHand			LeftHandThumb1			LeftHandThumb2			LeftHandThumb3			LeftHandThumb3_End			LeftInHandIndex			LeftHandIndex1			LeftHandIndex2			LeftHandIndex3			LeftHandIndex3_End			LeftInHandMiddle			LeftHandMiddle1			LeftHandMiddle2			LeftHandMiddle3			LeftHandMiddle3_End			LeftInHandRing			LeftHandRing1			LeftHandRing2			LeftHandRing3			LeftHandRing3_End			LeftInHandPinky			LeftHandPinky1			LeftHandPinky2			LeftHandPinky3			LeftHandPinky3_End			
		X1	Y1	Z1	X2	Y2	Z2	X3	Y3	Z3	X4	Y4	Z4	X5	Y5	Z5	X6	Y6	Z6	X7	Y7	Z7	X8	Y8	Z8	X9	Y9	Z9	X10	Y10	Z10	X11	Y11	Z11	X12	Y12	Z12	X13	Y13	Z13	X14	Y14	Z14	X15	Y15	Z15	X16	Y16	Z16	X17	Y17	Z17	X18	Y18	Z18	X19	Y19	Z19	X20	Y20	Z20	X21	Y21	Z21	X22	Y22	Z22	X23	Y23	Z23	X24	Y24	Z24	X25	Y25	Z25	X26	Y26	Z26	X27	Y27	Z27	X28	Y28	Z28	X29	Y29	Z29	X30	Y30	Z30	X31	Y31	Z31	X32	Y32	Z32	X33	Y33	Z33	X34	Y34	Z34	X35	Y35	Z35	X36	Y36	Z36	X37	Y37	Z37	X38	Y38	Z38	X39	Y39	Z39	X40	Y40	Z40	X41	Y41	Z41	X42	Y42	Z42	X43	Y43	Z43	X44	Y44	Z44	X45	Y45	Z45	X46	Y46	Z46	X47	Y47	Z47	X48	Y48	Z48	X49	Y49	Z49	X50	Y50	Z50	X51	Y51	Z51	X52	Y52	Z52	X53	Y53	Z53	X54	Y54	Z54	X55	Y55	Z55	X56	Y56	Z56	X57	Y57	Z57	X58	Y58	Z58	X59	Y59	Z59	X60	Y60	Z60	X61	Y61	Z61	X62	Y62	Z62	X63	Y63	Z63	X64	Y64	Z64	X65	Y65	Z65	X66	Y66	Z66	X67	Y67	Z67	X68	Y68	Z68	X69	Y69	Z69	X70	Y70	Z70	X71	Y71	Z71	X72	Y72	Z72	

98	0.808	81.20300000000043	893.81699	129.612	169.21595999999954	906.6868999999999	102.71948	60.889209999999366	504.28152	59.889109999999995	35.649970000000394	117.62416000000002	51.96543	-74.2165500000001	47.28235	191.67937	5.3006399999994755	854.6426200000001	170.13223999999997	-110.01854000000003	468.17972999999995	283.18361000000004	-243.88059000000067	89.76212	474.48744	-389.71594000000005	51.73380000000001	356.9097699999999	22.809610000000248	1014.0699900000001	78.82333999999999	-34.05854999999974	1076.52347	30.957680000000003	-96.74946	1135.8407700000002	-21.789929999999995	-160.68862999999965	1183.7591300000001	-77.11592000000002	-231.21659	1235.8225899999998	-132.80575999999994	-307.28261999999995	1274.11182	-173.04849	-448.1452899999995	1348.5339	-180.75002000000003	-185.4465599999994	1239.51484	-122.98350999999997	-96.99892	1321.1311200000005	-164.76956	74.94515000000047	1164.07744	-291.85232	307.7736699999996	1154.7296700000002	-406.73541	326.45082999999977	1186.77001	-421.61833	336.64891999999963	1198.84179	-454.8828599999999	345.0982500000009	1203.03597	-478.66348	353.29471999999987	1202.9287	-499.0146400000001	334.6888399999998	1175.7279200000003	-423.79771000000005	373.4816900000005	1187.3463899999997	-458.18278999999995	391.42677000000003	1189.4527599999997	-489.54394	393.50740999999925	1190.0104299999998	-509.95157000000006	389.1076299999995	1189.96487	-527.45706	336.57304999999997	1163.5817300000003	-424.6274399999999	375.43218999999954	1168.3458599999997	-458.6123	395.1253200000001	1168.99651	-492.84078	397.6889999999994	1168.87858	-517.4652999999998	392.9008299999996	1168.4443100000003	-536.62117	337.02274000000034	1154.73944	-424.2715900000001	372.55588999999964	1151.43712	-454.23088000000007	389.7720100000006	1150.31209	-484.01910000000004	392.2722099999992	1149.29971	-507.74727000000007	387.7830699999995	1148.46555	-525.7471799999998	335.5630000000001	1143.9320900000002	-423.37422	367.63022999999976	1134.36335	-450.09379000000007	381.3408500000005	1130.8366800000001	-473.74600999999996	383.1280399999996	1128.8280700000003	-490.95616999999993	379.13039000000026	1127.3581299999998	-506.84518	-229.88936999999987	1196.1195000000002	-106.54962	-297.0102999999999	1086.53036	-101.48357	-54.58610999999928	1086.32468	-207.74825	184.92791999999918	1128.7959800000003	-298.9512700000001	203.6814800000002	1163.9636800000003	-301.85957999999994	232.0295099999994	1180.7036	-285.35437	253.77613999999994	1188.3944999999999	-274.28936999999996	273.62065000000075	1191.41258	-265.43216000000007	212.66902000000027	1154.0772000000002	-305.8625599999999	262.15938000000006	1173.20732	-308.4992	296.17623000000003	1180.6079	-298.59619999999995	311.61841000000004	1183.7105499999996	-285.44234000000006	320.5509699999993	1185.2679700000003	-269.83509000000004	216.3797999999997	1142.3413299999997	-306.38032	266.6584899999998	1154.6540099999997	-309.23542	304.1062099999999	1161.11155	-298.47439	322.8942799999995	1164.0783700000002	-282.62637000000007	332.7447600000005	1165.40503	-265.5597200000001	217.76580999999987	1133.59966	-306.80135000000007	264.1084499999997	1137.1568	-310.08403000000004	297.00431000000026	1141.1116799999998	-300.74492	315.2629999999999	1143.08466	-285.4796	324.5894100000005	1143.9108900000003	-269.44276	217.71474999999919	1122.67159	-306.24509	260.2959099999998	1119.3304299999995	-309.3249599999999	286.8352500000001	1119.8706400000003	-301.89411000000007	300.24877000000015	1120.0391099999997	-290.78254	308.56545000000006	1120.0397599999997	-276.5897499999999
99	0.817	81.20300000000043	893.81699	129.612	169.32338999999956	906.5595800000001	103.01223000000003	60.805240000000595	504.2029	60.208899999999986	35.57973000000038	117.54572	52.2333	-74.27928000000065	47.21148000000001	191.95697000000004	5.112500000000182	854.76032	169.89230000000003	-109.98629999999957	468.22601	282.92407999999995	-244.05141999999978	90.10971000000002	474.68096	-389.62242999999944	51.73378000000001	356.8888600000001	23.139580000000024	1014.12315	78.57156	-33.49577000000045	1076.6683600000001	30.549880000000005	-95.94759999999951	1136.09681	-22.355970000000003	-159.66725000000042	1184.14291	-77.82424999999999	-229.9692699999996	1236.3427200000003	-133.67190999999997	-305.88112999999976	1274.7788900000003	-174.06542	-446.65250000000015	1349.34449	-182.04303999999996	-184.2232299999996	1239.96932	-123.71438999999998	-95.53440000000046	1321.4511800000002	-165.25084	77.29042000000027	1165.24582	-292.18434	309.95877999999993	1157.3974300000002	-407.5033199999999	328.3688400000001	1189.60674	-422.35431	338.42799000000014	1201.81574	-455.61106	346.8119999999999	1206.11706	-479.3956600000001	354.98093999999946	1206.109	-499.7581700000001	336.68834999999945	1178.63214	-424.56474999999995	375.34331999999995	1190.60943	-458.98198	393.22836000000007	1192.90943	-490.36380999999994	395.27646000000004	1193.5194399999998	-510.77323	390.85298000000057	1193.47128	-528.2727499999999	338.6646099999998	1166.5022700000002	-425.41883000000007	377.43903000000046	1171.6252299999999	-459.44821	397.0792899999997	1172.4880900000003	-493.7023699999999	399.60977	1172.43374	-518.3305499999999	394.7986199999996	1171.99685	-537.4806	339.1826599999995	1157.6630700000003	-425.07944000000003	374.69869000000017	1154.68712	-455.09318	391.88176999999996	1153.7474300000001	-484.90689000000003	394.3568800000003	1152.7965700000002	-508.6402299999999	389.8494100000007	1151.96004	-526.63545	337.80717000000004	1146.84325	-424.19944999999996	369.9099700000006	1137.5686899999998	-450.97998000000007	383.61456999999973	1134.18957	-474.65721	385.3933399999996	1132.2254099999998	-491.87337	381.38515000000007	1130.7531400000003	-507.75950000000006	-228.76729000000068	1196.6151899999998	-107.44673	-296.13039000000026	1087.1676600000003	-102.53604000000001	-53.58389999999963	1086.7443900000003	-208.52062000000004	185.97004000000015	1130.1976600000003	-299.1545	204.42511000000013	1165.53727	-301.88283	232.5586399999993	1182.47579	-285.2140299999999	254.19240000000082	1190.3240499999997	-274.03882	273.97404000000006	1193.48963	-265.09291	213.51516999999967	1155.74218	-305.87897	262.84554000000026	1175.3139800000001	-308.25961	296.7561400000004	1182.9831799999997	-298.19787999999994	312.1177399999997	1186.18175	-284.97283999999996	320.97379999999976	1187.77063	-269.32521	217.33104000000003	1144.04095	-306.41666	267.5105199999998	1156.80319	-309.03285000000005	304.85669999999936	1163.5569400000002	-298.10208	323.5544600000003	1166.6409800000001	-282.16985	333.32459000000017	1168.00277	-265.05984	218.79552999999942	1135.3131	-306.85808	265.11785000000054	1139.2868899999999	-309.94369	297.94006999999965	1143.50239	-300.46058	316.11952999999994	1145.58973	-285.11613000000006	325.3741399999999	1146.44961	-269.03950999999995	218.83835	1124.38337	-306.3345	261.45921	1121.4255300000002	-309.25293	287.9628499999999	1122.1764299999998	-301.71378	301.3298500000001	1122.42928	-290.54787999999996	309.58939999999984	1122.46028	-276.32179999999994
100	0.825	81.20300000000043	893.81699	129.612	169.42398000000048	906.46141	103.30039	60.815050000000156	504.1432600000001	60.3653	35.908190000000104	117.47463000000002	51.95527	-73.91464999999971	47.14032999999999	191.70734000000002	4.9389699999992445	854.8485099999999	169.64878999999996	-109.91402000000016	468.20390000000003	282.55331000000007	-244.42047999999977	90.83615	475.47217	-389.7380000000003	52.162459999999996	357.46464999999995	23.435129999999845	1014.1743000000001	78.35722	-32.97556999999961	1076.8025299999997	30.1796	-95.19505000000026	1136.32883	-22.889780000000002	-158.69419000000016	1184.4854299999997	-78.51489000000001	-228.76872999999978	1236.8049400000002	-134.53615000000005	-304.5309900000002	1275.37188	-175.08557	-445.19884	1350.1057	-183.31118000000004	-183.04572000000007	1240.36472	-124.44959999999998	-94.10375000000022	1321.6744299999998	-165.78162999999998	80.14894999999979	1166.5403400000002	-292.07518000000005	312.6244399999996	1160.1152699999998	-407.87021000000004	330.7668299999996	1192.4895	-422.69198000000006	340.67905000000064	1204.8346399999998	-455.94257999999996	348.9913399999996	1209.24243	-479.73286	357.1266599999999	1209.3331100000003	-500.10863000000006	339.1651700000002	1181.58199	-424.9361099999999	377.6722099999997	1193.91314	-459.39418	395.4878499999995	1196.4051600000003	-490.80082	397.49776999999995	1197.0678200000002	-511.2124000000001	393.0460499999999	1197.01824	-528.7047399999999	341.23137999999926	1169.46894	-425.81569	379.91016000000036	1174.9461599999997	-459.8987	399.4870699999992	1176.01956	-494.18315	401.9774499999994	1176.02921	-518.81548	397.1382900000008	1175.591	-537.9584399999999	341.81659000000036	1160.6332999999997	-425.49338	377.3047000000006	1157.97996	-455.57032999999996	394.44538999999986	1157.22422	-485.4136500000001	396.8886199999997	1156.3353500000003	-509.15270000000004	392.3580400000001	1155.49769	-527.1420599999998	340.52412000000004	1149.8018300000003	-424.63102000000003	372.65188000000035	1140.81843	-451.48078	386.34266000000025	1137.58593	-475.18646	388.1079099999997	1135.6666500000001	-492.40907	384.0848500000002	1134.1931800000002	-508.29134	-227.69423000000006	1197.0647699999997	-108.3246	-295.28549999999996	1087.75434	-103.49620000000002	-52.631930000000466	1087.02488	-209.23372999999998	186.93501000000015	1131.3312099999998	-299.41912	204.48898000000008	1167.16786	-301.54383	232.01375999999982	1184.6244399999998	-284.39997	253.32963000000018	1192.8933	-272.92130000000003	272.93697000000066	1196.46068	-263.74583000000007	213.86814999999933	1157.6612	-305.56833000000006	262.6926800000001	1178.53224	-307.23361	296.2958400000007	1186.95383	-296.75084	311.4436399999995	1190.38732	-283.33940000000007	320.10745999999926	1192.01358	-267.58834	217.99216999999953	1146.07022	-306.20902000000007	267.8449300000002	1160.15938	-308.18315	304.89797999999973	1167.74428	-296.80897	323.35813000000053	1171.1166	-280.65953999999994	332.92778999999973	1172.52166	-263.44006999999993	219.68740999999955	1137.3893	-306.74073	265.91763999999966	1142.5994200000002	-309.32712	298.52818000000025	1147.5476000000003	-299.4749	316.50171000000046	1149.9174	-283.93017999999995	325.5788499999999	1150.8200399999998	-267.75501999999994	220.00972999999976	1126.45876	-306.34777	262.71875999999975	1124.64215	-308.88614000000007	289.12162999999964	1125.9872100000002	-301.0807300000001	302.37166999999954	1126.4497000000001	-289.7829100000001	310.49316	1126.5206699999999	-275.4777
101	0.833	81.20300000000043	893.81699	129.612	169.52034999999978	906.3887000000001	103.59044	60.852530000000115	504.11749	60.365480000000005	36.059290000000146	117.44473	51.81069	-73.74155000000064	47.13873	191.59429	4.776029999999992	854.91223	169.39928	-109.88928999999916	468.1690899999999	282.15698000000003	-244.54899999999998	90.98259	475.32323	-389.62310999999954	51.982079999999996	357.12393	23.701669999999467	1014.21848	78.16165	-32.506169999999656	1076.9187699999998	29.84086	-94.51566999999977	1136.53	-23.378730000000004	-157.81853000000046	1184.77928	-79.14706000000001	-227.6893600000003	1237.20146	-135.32657000000003	-303.3118000000004	1275.8889299999998	-176.02190000000002	-443.86835000000065	1350.80343	-184.50277	-181.98335000000043	1240.69226	-125.13934000000002	-92.76829999999973	1321.78591	-166.30696999999998	81.70341000000008	1166.5721499999997	-292.1996199999999	313.9794900000006	1161.4672500000001	-408.45962999999995	331.8615	1194.00135	-423.24772	341.6373800000001	1206.4785900000002	-456.48938000000004	349.88486999999986	1210.9900599999999	-480.28278	357.9919799999998	1211.17719	-500.66912999999994	340.33745999999974	1183.1604100000002	-425.5224400000001	378.70582000000013	1195.8378399999997	-460.00953	396.4603900000002	1198.51758	-491.43528999999995	398.43799000000035	1199.2313100000001	-511.8483	393.96331999999984	1199.1797300000003	-529.33479	342.49222999999984	1171.0646000000002	-426.42634000000004	381.0836300000001	1176.8889	-460.55083	400.6060899999993	1178.16822	-494.85926	403.0633200000002	1178.24001	-519.4948200000001	398.2018799999996	1177.7998700000003	-538.63209	343.1433500000003	1162.2329800000002	-426.1205699999999	378.6098199999997	1159.8961999999997	-456.24925999999994	395.7156299999997	1159.3204999999998	-486.1166	398.13356999999996	1158.4918599999999	-509.86042	393.58522000000085	1157.6525200000003	-527.84522	341.93237000000045	1151.3907099999997	-425.27581	374.0898299999999	1142.6934199999998	-452.18414	387.77242000000024	1139.6045599999998	-475.91369000000003	389.5287699999999	1137.72896	-493.14203000000003	385.4954600000001	1136.2538600000003	-509.0215400000001	-226.73332000000028	1197.4616199999998	-109.10991999999999	-294.5315900000005	1088.27825	-104.30886	-51.784090000000106	1087.21275	-209.82769000000002	187.80018000000018	1132.1900400000002	-299.63415000000003	205.26699999999983	1168.0726099999997	-301.70121	232.73208000000068	1185.57787	-284.5113	254.01645999999982	1193.8865	-273.00297	273.6062000000002	1197.4920799999998	-263.80484	214.67358000000058	1158.5939	-305.7277000000001	263.4476200000008	1179.5881	-307.3228000000001	297.0198199999995	1188.08114	-296.79855	312.14635	1191.53688	-283.36883000000006	320.7912100000003	1193.1666099999998	-267.60771000000005	218.82700000000023	1147.01395	-306.3777400000001	268.6464299999998	1161.2292	-308.28848000000005	305.66973999999936	1168.89311	-296.8704900000001	324.10617	1172.2927700000002	-280.69972	333.6560300000001	1173.70186	-263.4696	220.54431999999997	1138.33788	-306.91776000000004	266.7638800000004	1143.66583	-309.45436	299.3526900000006	1148.68373	-299.56557000000004	317.30556999999953	1151.08036	-284.00111000000004	326.3651399999999	1151.98701	-267.81632999999994	220.89343999999983	1127.40774	-306.53701	263.60923	1125.7001700000003	-309.03695999999997	290.00129000000015	1127.10189	-301.20498	303.2394599999998	1127.5843499999999	-289.89408999999995	311.3472099999999	1127.6590999999999	-275.5811100000001
